<?xml version="1.0" encoding="UTF-8" standalone="no"?>
<!DOCTYPE svg PUBLIC "-//W3C//DTD SVG 1.1//EN"
 "http://www.w3.org/Graphics/SVG/1.1/DTD/svg11.dtd">
<!-- Generated by graphviz version 2.40.1 (20161225.0304)
 -->
<!-- Title: state transitions Pages: 1 -->
<svg width="1908pt" height="788pt"
 viewBox="0.00 0.00 1907.57 788.00" xmlns="http://www.w3.org/2000/svg" xmlns:xlink="http://www.w3.org/1999/xlink">
<g id="graph0" class="graph" transform="scale(1 1) rotate(0) translate(4 784)">
<title>state transitions</title>
<polygon fill="#ffffff" stroke="transparent" points="-4,4 -4,-784 1903.567,-784 1903.567,4 -4,4"/>
<g id="clust1" class="cluster state regular">
<title>cluster_state_next</title>
<path fill="none" stroke="#000000" stroke-width="2" d="M20,-8C20,-8 1874,-8 1874,-8 1880,-8 1886,-14 1886,-20 1886,-20 1886,-760 1886,-760 1886,-766 1880,-772 1874,-772 1874,-772 20,-772 20,-772 14,-772 8,-766 8,-760 8,-760 8,-20 8,-20 8,-14 14,-8 20,-8"/>
<text text-anchor="start" x="919.8208" y="-753.2" font-family="Helvetica,sans-Serif" font-size="12.00" fill="#000000">state_next</text>
</g>
<!-- state_next -->
<!-- STATE_IDLE -->
<g id="node2" class="node state regular">
<title>STATE_IDLE</title>
<polygon fill="#ffffff" fill-opacity="0.003922" stroke="transparent" stroke-width="2" points="1141,-734 1047,-734 1047,-698 1141,-698 1141,-734"/>
<text text-anchor="start" x="1057.994" y="-712.2" font-family="Helvetica,sans-Serif" font-size="12.00" fill="#000000">STATE_IDLE</text>
<path fill="none" stroke="#000000" stroke-width="2" d="M1059.3333,-699C1059.3333,-699 1128.6667,-699 1128.6667,-699 1134.3333,-699 1140,-704.6667 1140,-710.3333 1140,-710.3333 1140,-721.6667 1140,-721.6667 1140,-727.3333 1134.3333,-733 1128.6667,-733 1128.6667,-733 1059.3333,-733 1059.3333,-733 1053.6667,-733 1048,-727.3333 1048,-721.6667 1048,-721.6667 1048,-710.3333 1048,-710.3333 1048,-704.6667 1053.6667,-699 1059.3333,-699"/>
</g>
<!-- STATE_IDLE&#45;&gt;STATE_IDLE -->
<g id="edge3" class="edge transition">
<title>STATE_IDLE&#45;&gt;STATE_IDLE</title>
<path fill="none" stroke="#000000" d="M1141.0851,-718.4161C1153.5552,-718.278 1163,-717.4727 1163,-716 1163,-714.9645 1158.3306,-714.259 1151.2234,-713.8833"/>
<polygon fill="#000000" stroke="#000000" points="1151.184,-710.3807 1141.0851,-713.5839 1150.9774,-717.3777 1151.184,-710.3807"/>
<text text-anchor="start" x="1163" y="-719" font-family="Helvetica,sans-Serif" font-size="10.00" fill="#000000">not (s_axis_cmd_read ^ (s_axis_cmd_write | s_axis_cmd_write_multiple)) &#160;&#160;</text>
<text text-anchor="start" x="1163" y="-707" font-family="Helvetica,sans-Serif" font-size="10.00" fill="#000000">s_axis_cmd_ready &amp; s_axis_cmd_valid &#160;&#160;</text>
</g>
<!-- STATE_IDLE&#45;&gt;STATE_IDLE -->
<g id="edge4" class="edge transition">
<title>STATE_IDLE&#45;&gt;STATE_IDLE</title>
<path fill="none" stroke="#000000" d="M1141.2844,-718.9348C1249.1974,-722.2786 1496.979,-721.3003 1496.979,-716 1496.979,-710.8602 1263.9727,-709.7846 1151.4589,-712.7734"/>
<polygon fill="#000000" stroke="#000000" points="1151.1799,-709.2798 1141.2844,-713.0652 1151.3806,-716.277 1151.1799,-709.2798"/>
<text text-anchor="start" x="1496.979" y="-713" font-family="Helvetica,sans-Serif" font-size="10.00" fill="#000000">not (s_axis_cmd_ready &amp; s_axis_cmd_valid) &#160;&#160;</text>
</g>
<!-- STATE_START_WAIT -->
<g id="node5" class="node state regular">
<title>STATE_START_WAIT</title>
<polygon fill="#ffffff" fill-opacity="0.003922" stroke="transparent" stroke-width="2" points="474.5,-628 331.5,-628 331.5,-592 474.5,-592 474.5,-628"/>
<text text-anchor="start" x="342.8316" y="-606.2" font-family="Helvetica,sans-Serif" font-size="12.00" fill="#000000">STATE_START_WAIT</text>
<path fill="none" stroke="#000000" stroke-width="2" d="M343.8333,-593C343.8333,-593 462.1667,-593 462.1667,-593 467.8333,-593 473.5,-598.6667 473.5,-604.3333 473.5,-604.3333 473.5,-615.6667 473.5,-615.6667 473.5,-621.3333 467.8333,-627 462.1667,-627 462.1667,-627 343.8333,-627 343.8333,-627 338.1667,-627 332.5,-621.3333 332.5,-615.6667 332.5,-615.6667 332.5,-604.3333 332.5,-604.3333 332.5,-598.6667 338.1667,-593 343.8333,-593"/>
</g>
<!-- STATE_IDLE&#45;&gt;STATE_START_WAIT -->
<g id="edge1" class="edge transition">
<title>STATE_IDLE&#45;&gt;STATE_START_WAIT</title>
<path fill="none" stroke="#000000" d="M1046.98,-715.0851C897.949,-711.9867 444.4579,-700.9533 420.355,-681 408.0849,-670.8423 403.6752,-653.5745 402.3675,-638.612"/>
<polygon fill="#000000" stroke="#000000" points="405.8474,-638.0891 401.8955,-628.259 398.8547,-638.408 405.8474,-638.0891"/>
<text text-anchor="start" x="420" y="-672" font-family="Helvetica,sans-Serif" font-size="10.00" fill="#000000">bus_active &#160;&#160;</text>
<text text-anchor="start" x="420" y="-660" font-family="Helvetica,sans-Serif" font-size="10.00" fill="#000000">s_axis_cmd_read ^ (s_axis_cmd_write | s_axis_cmd_write_multiple) &#160;&#160;</text>
<text text-anchor="start" x="420" y="-648" font-family="Helvetica,sans-Serif" font-size="10.00" fill="#000000">s_axis_cmd_ready &amp; s_axis_cmd_valid &#160;&#160;</text>
</g>
<!-- STATE_ADDRESS_1 -->
<g id="node7" class="node state regular">
<title>STATE_ADDRESS_1</title>
<polygon fill="#ffffff" fill-opacity="0.003922" stroke="transparent" stroke-width="2" points="472,-546 334,-546 334,-510 472,-510 472,-546"/>
<text text-anchor="start" x="344.659" y="-524.2" font-family="Helvetica,sans-Serif" font-size="12.00" fill="#000000">STATE_ADDRESS_1</text>
<path fill="none" stroke="#000000" stroke-width="2" d="M346.3333,-511C346.3333,-511 459.6667,-511 459.6667,-511 465.3333,-511 471,-516.6667 471,-522.3333 471,-522.3333 471,-533.6667 471,-533.6667 471,-539.3333 465.3333,-545 459.6667,-545 459.6667,-545 346.3333,-545 346.3333,-545 340.6667,-545 335,-539.3333 335,-533.6667 335,-533.6667 335,-522.3333 335,-522.3333 335,-516.6667 340.6667,-511 346.3333,-511"/>
</g>
<!-- STATE_IDLE&#45;&gt;STATE_ADDRESS_1 -->
<g id="edge2" class="edge transition">
<title>STATE_IDLE&#45;&gt;STATE_ADDRESS_1</title>
<path fill="none" stroke="#000000" d="M1046.9614,-713.8281C950.0204,-708.7217 737,-693.9768 737,-663 737,-663 737,-663 737,-569 737,-543.4679 581.2542,-533.6873 482.4693,-530.0516"/>
<polygon fill="#000000" stroke="#000000" points="482.3226,-526.5443 472.205,-529.6883 482.0749,-533.5399 482.3226,-526.5443"/>
<text text-anchor="start" x="737" y="-619" font-family="Helvetica,sans-Serif" font-size="10.00" fill="#000000">not (bus_active) &#160;&#160;</text>
<text text-anchor="start" x="737" y="-607" font-family="Helvetica,sans-Serif" font-size="10.00" fill="#000000">s_axis_cmd_read ^ (s_axis_cmd_write | s_axis_cmd_write_multiple) &#160;&#160;</text>
<text text-anchor="start" x="737" y="-595" font-family="Helvetica,sans-Serif" font-size="10.00" fill="#000000">s_axis_cmd_ready &amp; s_axis_cmd_valid &#160;&#160;</text>
</g>
<!-- STATE_ACTIVE_WRITE -->
<g id="node3" class="node state regular">
<title>STATE_ACTIVE_WRITE</title>
<polygon fill="#ffffff" fill-opacity="0.003922" stroke="transparent" stroke-width="2" points="1126,-52 970,-52 970,-16 1126,-16 1126,-52"/>
<text text-anchor="start" x="980.9968" y="-30.2" font-family="Helvetica,sans-Serif" font-size="12.00" fill="#000000">STATE_ACTIVE_WRITE</text>
<path fill="none" stroke="#000000" stroke-width="2" d="M982.3333,-17C982.3333,-17 1113.6667,-17 1113.6667,-17 1119.3333,-17 1125,-22.6667 1125,-28.3333 1125,-28.3333 1125,-39.6667 1125,-39.6667 1125,-45.3333 1119.3333,-51 1113.6667,-51 1113.6667,-51 982.3333,-51 982.3333,-51 976.6667,-51 971,-45.3333 971,-39.6667 971,-39.6667 971,-28.3333 971,-28.3333 971,-22.6667 976.6667,-17 982.3333,-17"/>
</g>
<!-- STATE_ACTIVE_WRITE&#45;&gt;STATE_IDLE -->
<g id="edge7" class="edge transition">
<title>STATE_ACTIVE_WRITE&#45;&gt;STATE_IDLE</title>
<path fill="none" stroke="#000000" d="M1126.285,-34.5355C1328.5771,-36.4338 1853,-44.8419 1853,-81 1853,-207.5 1853,-207.5 1853,-207.5 1853,-228.8345 1849.4463,-236.3008 1835,-252 1799.603,-290.4668 1778.197,-284.7592 1730,-305 1708.3593,-314.0882 1701.4625,-312.4986 1680,-322 1649.803,-335.3682 1646.8057,-349.1139 1615,-358 1591.7247,-364.5028 1197.0832,-357.5809 1180.332,-375 1172.9384,-382.6884 1175.7767,-389.3549 1180.332,-399 1185.4114,-409.7548 1193.9599,-406.4134 1201,-416 1213.628,-433.1957 1219,-439.1655 1219,-460.5 1219,-663 1219,-663 1219,-663 1219,-678.983 1183.922,-692.9055 1150.9304,-702.4652"/>
<polygon fill="#000000" stroke="#000000" points="1149.9473,-699.1058 1141.2571,-705.1665 1151.83,-705.8478 1149.9473,-699.1058"/>
<text text-anchor="start" x="1180" y="-390" font-family="Helvetica,sans-Serif" font-size="10.00" fill="#000000">s_axis_cmd_stop &amp;&amp; !(s_axis_cmd_read || s_axis_cmd_write || s_axis_cmd_write_multiple) &#160;&#160;</text>
<text text-anchor="start" x="1180" y="-378" font-family="Helvetica,sans-Serif" font-size="10.00" fill="#000000">s_axis_cmd_ready &amp; s_axis_cmd_valid &#160;&#160;</text>
</g>
<!-- STATE_ACTIVE_WRITE&#45;&gt;STATE_IDLE -->
<g id="edge9" class="edge transition">
<title>STATE_ACTIVE_WRITE&#45;&gt;STATE_IDLE</title>
<path fill="none" stroke="#000000" d="M1126.0381,-35.7972C1289.4493,-39.7143 1662.9837,-49.5147 1790,-60 1848.4322,-64.8236 1877,-53.4621 1877,-81 1877,-207.5 1877,-207.5 1877,-207.5 1877,-230.8672 1864.7938,-234.7785 1849,-252 1822.6247,-280.7595 1810.9774,-282.6346 1779,-305 1744.5509,-329.0942 1620,-365.4611 1620,-407.5 1620,-663 1620,-663 1620,-663 1620,-686.3412 1287.7845,-706.0569 1151.3936,-713.1676"/>
<polygon fill="#000000" stroke="#000000" points="1150.9479,-709.6859 1141.1419,-713.6975 1151.3093,-716.6766 1150.9479,-709.6859"/>
<text text-anchor="start" x="1642" y="-384" font-family="Helvetica,sans-Serif" font-size="10.00" fill="#000000">stop_on_idle &amp; s_axis_cmd_ready &amp; ~s_axis_cmd_valid &#160;&#160;</text>
</g>
<!-- STATE_ACTIVE_WRITE&#45;&gt;STATE_ACTIVE_WRITE -->
<g id="edge8" class="edge transition">
<title>STATE_ACTIVE_WRITE&#45;&gt;STATE_ACTIVE_WRITE</title>
<path fill="none" stroke="#000000" d="M1126.3997,-36.2553C1139.2018,-35.9324 1148,-35.1807 1148,-34 1148,-33.1698 1143.6503,-32.5517 1136.6175,-32.1457"/>
<polygon fill="#000000" stroke="#000000" points="1136.5293,-28.6396 1126.3997,-31.7447 1136.2547,-35.6342 1136.5293,-28.6396"/>
<text text-anchor="start" x="1148" y="-43" font-family="Helvetica,sans-Serif" font-size="10.00" fill="#000000">not (s_axis_cmd_read ^ (s_axis_cmd_write | s_axis_cmd_write_multiple)) &#160;&#160;</text>
<text text-anchor="start" x="1148" y="-31" font-family="Helvetica,sans-Serif" font-size="10.00" fill="#000000">not (s_axis_cmd_stop &amp;&amp; !(s_axis_cmd_read || s_axis_cmd_write || s_axis_cmd_write_multiple)) &#160;&#160;</text>
<text text-anchor="start" x="1148" y="-19" font-family="Helvetica,sans-Serif" font-size="10.00" fill="#000000">s_axis_cmd_ready &amp; s_axis_cmd_valid &#160;&#160;</text>
</g>
<!-- STATE_ACTIVE_WRITE&#45;&gt;STATE_ACTIVE_WRITE -->
<g id="edge10" class="edge transition">
<title>STATE_ACTIVE_WRITE&#45;&gt;STATE_ACTIVE_WRITE</title>
<path fill="none" stroke="#000000" d="M1126.067,-37.2566C1276.3594,-40.2081 1584.002,-39.1226 1584.002,-34 1584.002,-28.9925 1290.0241,-27.8427 1136.427,-30.5506"/>
<polygon fill="#000000" stroke="#000000" points="1136.0001,-27.0578 1126.067,-30.7434 1136.1304,-34.0566 1136.0001,-27.0578"/>
<text text-anchor="start" x="1584.002" y="-37" font-family="Helvetica,sans-Serif" font-size="10.00" fill="#000000">not (s_axis_cmd_ready &amp; s_axis_cmd_valid) &#160;&#160;</text>
<text text-anchor="start" x="1584.002" y="-25" font-family="Helvetica,sans-Serif" font-size="10.00" fill="#000000">not (stop_on_idle &amp; s_axis_cmd_ready &amp; ~s_axis_cmd_valid) &#160;&#160;</text>
</g>
<!-- STATE_ACTIVE_WRITE&#45;&gt;STATE_ADDRESS_1 -->
<g id="edge5" class="edge transition">
<title>STATE_ACTIVE_WRITE&#45;&gt;STATE_ADDRESS_1</title>
<path fill="none" stroke="#000000" d="M969.6612,-35.5311C729.0621,-40.489 17,-57.1748 17,-81 17,-154.5 17,-154.5 17,-154.5 17,-225.7804 38,-242.2196 38,-313.5 38,-481 38,-481 38,-481 38,-509.5876 216.4043,-521.1751 323.7583,-525.5599"/>
<polygon fill="#000000" stroke="#000000" points="323.7865,-529.0637 333.9172,-525.9621 324.0635,-522.0691 323.7865,-529.0637"/>
<text text-anchor="start" x="37" y="-296" font-family="Helvetica,sans-Serif" font-size="10.00" fill="#000000">s_axis_cmd_start || s_axis_cmd_address != addr_reg || s_axis_cmd_read &#160;&#160;</text>
<text text-anchor="start" x="37" y="-284" font-family="Helvetica,sans-Serif" font-size="10.00" fill="#000000">s_axis_cmd_read ^ (s_axis_cmd_write | s_axis_cmd_write_multiple) &#160;&#160;</text>
<text text-anchor="start" x="37" y="-272" font-family="Helvetica,sans-Serif" font-size="10.00" fill="#000000">s_axis_cmd_ready &amp; s_axis_cmd_valid &#160;&#160;</text>
</g>
<!-- STATE_WRITE_1 -->
<g id="node9" class="node state regular">
<title>STATE_WRITE_1</title>
<polygon fill="#ffffff" fill-opacity="0.003922" stroke="transparent" stroke-width="2" points="1342.5,-358 1223.5,-358 1223.5,-322 1342.5,-322 1342.5,-358"/>
<text text-anchor="start" x="1234.8298" y="-336.2" font-family="Helvetica,sans-Serif" font-size="12.00" fill="#000000">STATE_WRITE_1</text>
<path fill="none" stroke="#000000" stroke-width="2" d="M1235.8333,-323C1235.8333,-323 1330.1667,-323 1330.1667,-323 1335.8333,-323 1341.5,-328.6667 1341.5,-334.3333 1341.5,-334.3333 1341.5,-345.6667 1341.5,-345.6667 1341.5,-351.3333 1335.8333,-357 1330.1667,-357 1330.1667,-357 1235.8333,-357 1235.8333,-357 1230.1667,-357 1224.5,-351.3333 1224.5,-345.6667 1224.5,-345.6667 1224.5,-334.3333 1224.5,-334.3333 1224.5,-328.6667 1230.1667,-323 1235.8333,-323"/>
</g>
<!-- STATE_ACTIVE_WRITE&#45;&gt;STATE_WRITE_1 -->
<g id="edge6" class="edge transition">
<title>STATE_ACTIVE_WRITE&#45;&gt;STATE_WRITE_1</title>
<path fill="none" stroke="#000000" d="M1126.0299,-43.1103C1190.6761,-51.7558 1272,-65.6769 1272,-81 1272,-287 1272,-287 1272,-287 1272,-295.1024 1273.2477,-303.7589 1274.9027,-311.6772"/>
<polygon fill="#000000" stroke="#000000" points="1271.5312,-312.6288 1277.2423,-321.5526 1278.3427,-311.0151 1271.5312,-312.6288"/>
<text text-anchor="start" x="1272" y="-190" font-family="Helvetica,sans-Serif" font-size="10.00" fill="#000000">not (s_axis_cmd_start || s_axis_cmd_address != addr_reg || s_axis_cmd_read) &#160;&#160;</text>
<text text-anchor="start" x="1272" y="-178" font-family="Helvetica,sans-Serif" font-size="10.00" fill="#000000">s_axis_cmd_read ^ (s_axis_cmd_write | s_axis_cmd_write_multiple) &#160;&#160;</text>
<text text-anchor="start" x="1272" y="-166" font-family="Helvetica,sans-Serif" font-size="10.00" fill="#000000">s_axis_cmd_ready &amp; s_axis_cmd_valid &#160;&#160;</text>
</g>
<!-- STATE_ACTIVE_READ -->
<g id="node4" class="node state regular">
<title>STATE_ACTIVE_READ</title>
<polygon fill="#ffffff" fill-opacity="0.003922" stroke="transparent" stroke-width="2" points="452,-252 302,-252 302,-216 452,-216 452,-252"/>
<text text-anchor="start" x="312.6602" y="-230.2" font-family="Helvetica,sans-Serif" font-size="12.00" fill="#000000">STATE_ACTIVE_READ</text>
<path fill="none" stroke="#000000" stroke-width="2" d="M314.3333,-217C314.3333,-217 439.6667,-217 439.6667,-217 445.3333,-217 451,-222.6667 451,-228.3333 451,-228.3333 451,-239.6667 451,-239.6667 451,-245.3333 445.3333,-251 439.6667,-251 439.6667,-251 314.3333,-251 314.3333,-251 308.6667,-251 303,-245.3333 303,-239.6667 303,-239.6667 303,-228.3333 303,-228.3333 303,-222.6667 308.6667,-217 314.3333,-217"/>
</g>
<!-- STATE_ACTIVE_READ&#45;&gt;STATE_ACTIVE_READ -->
<g id="edge14" class="edge transition">
<title>STATE_ACTIVE_READ&#45;&gt;STATE_ACTIVE_READ</title>
<path fill="none" stroke="#000000" d="M452.2412,-236.2755C465.0947,-235.9646 474,-235.2061 474,-234 474,-233.152 469.5974,-232.5253 462.5152,-232.1198"/>
<polygon fill="#000000" stroke="#000000" points="462.3684,-228.6116 452.2412,-231.7245 462.0992,-235.6065 462.3684,-228.6116"/>
<text text-anchor="start" x="474" y="-243" font-family="Helvetica,sans-Serif" font-size="10.00" fill="#000000">not (s_axis_cmd_read ^ (s_axis_cmd_write | s_axis_cmd_write_multiple)) &#160;&#160;</text>
<text text-anchor="start" x="474" y="-231" font-family="Helvetica,sans-Serif" font-size="10.00" fill="#000000">not (s_axis_cmd_stop &amp;&amp; !(s_axis_cmd_read || s_axis_cmd_write || s_axis_cmd_write_multiple)) &#160;&#160;</text>
<text text-anchor="start" x="474" y="-219" font-family="Helvetica,sans-Serif" font-size="10.00" fill="#000000">s_axis_cmd_ready &amp; s_axis_cmd_valid &#160;&#160;</text>
</g>
<!-- STATE_ACTIVE_READ&#45;&gt;STATE_ACTIVE_READ -->
<g id="edge16" class="edge transition">
<title>STATE_ACTIVE_READ&#45;&gt;STATE_ACTIVE_READ</title>
<path fill="none" stroke="#000000" d="M452.117,-237.2124C600.5566,-240.2188 910.002,-239.1479 910.002,-234 910.002,-228.9677 614.3014,-227.8314 462.3576,-230.5912"/>
<polygon fill="#000000" stroke="#000000" points="462.048,-227.0964 452.117,-230.7876 462.1823,-234.0951 462.048,-227.0964"/>
<text text-anchor="start" x="910.002" y="-237" font-family="Helvetica,sans-Serif" font-size="10.00" fill="#000000">not (s_axis_cmd_ready &amp; s_axis_cmd_valid) &#160;&#160;</text>
<text text-anchor="start" x="910.002" y="-225" font-family="Helvetica,sans-Serif" font-size="10.00" fill="#000000">not (stop_on_idle &amp; s_axis_cmd_ready &amp; ~s_axis_cmd_valid) &#160;&#160;</text>
</g>
<!-- STATE_START -->
<g id="node6" class="node state regular">
<title>STATE_START</title>
<polygon fill="#ffffff" fill-opacity="0.003922" stroke="transparent" stroke-width="2" points="155,-146 49,-146 49,-110 155,-110 155,-146"/>
<text text-anchor="start" x="59.6646" y="-124.2" font-family="Helvetica,sans-Serif" font-size="12.00" fill="#000000">STATE_START</text>
<path fill="none" stroke="#000000" stroke-width="2" d="M61.3333,-111C61.3333,-111 142.6667,-111 142.6667,-111 148.3333,-111 154,-116.6667 154,-122.3333 154,-122.3333 154,-133.6667 154,-133.6667 154,-139.3333 148.3333,-145 142.6667,-145 142.6667,-145 61.3333,-145 61.3333,-145 55.6667,-145 50,-139.3333 50,-133.6667 50,-133.6667 50,-122.3333 50,-122.3333 50,-116.6667 55.6667,-111 61.3333,-111"/>
</g>
<!-- STATE_ACTIVE_READ&#45;&gt;STATE_START -->
<g id="edge11" class="edge transition">
<title>STATE_ACTIVE_READ&#45;&gt;STATE_START</title>
<path fill="none" stroke="#000000" d="M301.9525,-219.8025C293.88,-218.4403 285.7776,-217.143 278,-216 244.5515,-211.0844 153.2489,-220.0801 126.818,-199 113.8787,-188.6801 107.6684,-171.1744 104.6958,-156.1282"/>
<polygon fill="#000000" stroke="#000000" points="108.1471,-155.5452 103.1122,-146.2231 101.2349,-156.6503 108.1471,-155.5452"/>
<text text-anchor="start" x="126" y="-190" font-family="Helvetica,sans-Serif" font-size="10.00" fill="#000000">s_axis_cmd_start || s_axis_cmd_address != addr_reg || s_axis_cmd_write &#160;&#160;</text>
<text text-anchor="start" x="126" y="-178" font-family="Helvetica,sans-Serif" font-size="10.00" fill="#000000">s_axis_cmd_read ^ (s_axis_cmd_write | s_axis_cmd_write_multiple) &#160;&#160;</text>
<text text-anchor="start" x="126" y="-166" font-family="Helvetica,sans-Serif" font-size="10.00" fill="#000000">s_axis_cmd_ready &amp; s_axis_cmd_valid &#160;&#160;</text>
</g>
<!-- STATE_READ -->
<g id="node12" class="node state regular">
<title>STATE_READ</title>
<polygon fill="#ffffff" fill-opacity="0.003922" stroke="transparent" stroke-width="2" points="524,-358 424,-358 424,-322 524,-322 524,-358"/>
<text text-anchor="start" x="434.664" y="-336.2" font-family="Helvetica,sans-Serif" font-size="12.00" fill="#000000">STATE_READ</text>
<path fill="none" stroke="#000000" stroke-width="2" d="M436.3333,-323C436.3333,-323 511.6667,-323 511.6667,-323 517.3333,-323 523,-328.6667 523,-334.3333 523,-334.3333 523,-345.6667 523,-345.6667 523,-351.3333 517.3333,-357 511.6667,-357 511.6667,-357 436.3333,-357 436.3333,-357 430.6667,-357 425,-351.3333 425,-345.6667 425,-345.6667 425,-334.3333 425,-334.3333 425,-328.6667 430.6667,-323 436.3333,-323"/>
</g>
<!-- STATE_ACTIVE_READ&#45;&gt;STATE_READ -->
<g id="edge12" class="edge transition">
<title>STATE_ACTIVE_READ&#45;&gt;STATE_READ</title>
<path fill="none" stroke="#000000" d="M405.2009,-252.1328C412.0523,-257.1751 419.0981,-262.9429 425,-269 437.8608,-282.199 449.6787,-299.1126 458.4852,-313.1207"/>
<polygon fill="#000000" stroke="#000000" points="455.6139,-315.1342 463.818,-321.8381 461.5852,-311.4812 455.6139,-315.1342"/>
<text text-anchor="start" x="453" y="-296" font-family="Helvetica,sans-Serif" font-size="10.00" fill="#000000">not (s_axis_cmd_start || s_axis_cmd_address != addr_reg || s_axis_cmd_write) &#160;&#160;</text>
<text text-anchor="start" x="453" y="-284" font-family="Helvetica,sans-Serif" font-size="10.00" fill="#000000">s_axis_cmd_read ^ (s_axis_cmd_write | s_axis_cmd_write_multiple) &#160;&#160;</text>
<text text-anchor="start" x="453" y="-272" font-family="Helvetica,sans-Serif" font-size="10.00" fill="#000000">s_axis_cmd_ready &amp; s_axis_cmd_valid &#160;&#160;</text>
</g>
<!-- STATE_STOP -->
<g id="node13" class="node state regular">
<title>STATE_STOP</title>
<polygon fill="#ffffff" fill-opacity="0.003922" stroke="transparent" stroke-width="2" points="767,-146 667,-146 667,-110 767,-110 767,-146"/>
<text text-anchor="start" x="677.994" y="-124.2" font-family="Helvetica,sans-Serif" font-size="12.00" fill="#000000">STATE_STOP</text>
<path fill="none" stroke="#000000" stroke-width="2" d="M679.3333,-111C679.3333,-111 754.6667,-111 754.6667,-111 760.3333,-111 766,-116.6667 766,-122.3333 766,-122.3333 766,-133.6667 766,-133.6667 766,-139.3333 760.3333,-145 754.6667,-145 754.6667,-145 679.3333,-145 679.3333,-145 673.6667,-145 668,-139.3333 668,-133.6667 668,-133.6667 668,-122.3333 668,-122.3333 668,-116.6667 673.6667,-111 679.3333,-111"/>
</g>
<!-- STATE_ACTIVE_READ&#45;&gt;STATE_STOP -->
<g id="edge13" class="edge transition">
<title>STATE_ACTIVE_READ&#45;&gt;STATE_STOP</title>
<path fill="none" stroke="#000000" d="M428.7234,-215.9524C440.3307,-211.0887 452.3532,-205.3802 463,-199 484.4769,-186.1299 483.5623,-173.4134 506.332,-163 532.4099,-151.0737 603.891,-140.7812 656.3842,-134.5026"/>
<polygon fill="#000000" stroke="#000000" points="657.0873,-137.9441 666.6106,-133.3011 656.2705,-130.992 657.0873,-137.9441"/>
<text text-anchor="start" x="506" y="-184" font-family="Helvetica,sans-Serif" font-size="10.00" fill="#000000">s_axis_cmd_stop &amp;&amp; !(s_axis_cmd_read || s_axis_cmd_write || s_axis_cmd_write_multiple) &#160;&#160;</text>
<text text-anchor="start" x="506" y="-172" font-family="Helvetica,sans-Serif" font-size="10.00" fill="#000000">s_axis_cmd_ready &amp; s_axis_cmd_valid &#160;&#160;</text>
</g>
<!-- STATE_ACTIVE_READ&#45;&gt;STATE_STOP -->
<g id="edge15" class="edge transition">
<title>STATE_ACTIVE_READ&#45;&gt;STATE_STOP</title>
<path fill="none" stroke="#000000" d="M452.116,-231.8465C597.4373,-227.3126 904.2504,-215.7975 920,-199 964.8785,-151.1357 852.4824,-135.5281 777.5897,-130.4463"/>
<polygon fill="#000000" stroke="#000000" points="777.4917,-126.9333 767.2912,-129.7968 777.0511,-133.9194 777.4917,-126.9333"/>
<text text-anchor="start" x="930" y="-178" font-family="Helvetica,sans-Serif" font-size="10.00" fill="#000000">stop_on_idle &amp; s_axis_cmd_ready &amp; ~s_axis_cmd_valid &#160;&#160;</text>
</g>
<!-- STATE_START_WAIT&#45;&gt;STATE_START_WAIT -->
<g id="edge17" class="edge transition">
<title>STATE_START_WAIT&#45;&gt;STATE_START_WAIT</title>
<path fill="none" stroke="#000000" d="M474.7388,-614.5891C487.5508,-613.9926 496.5,-612.4629 496.5,-610 496.5,-608.2683 492.0757,-606.9979 484.9951,-606.1889"/>
<polygon fill="#000000" stroke="#000000" points="484.9749,-602.6774 474.7388,-605.4109 484.4454,-609.6574 484.9749,-602.6774"/>
<text text-anchor="start" x="496.5" y="-607" font-family="Helvetica,sans-Serif" font-size="10.00" fill="#000000">bus_active &#160;&#160;</text>
</g>
<!-- STATE_START_WAIT&#45;&gt;STATE_ADDRESS_1 -->
<g id="edge18" class="edge transition">
<title>STATE_START_WAIT&#45;&gt;STATE_ADDRESS_1</title>
<path fill="none" stroke="#000000" d="M403,-591.8015C403,-581.3976 403,-568.1215 403,-556.3768"/>
<polygon fill="#000000" stroke="#000000" points="406.5001,-556.1476 403,-546.1476 399.5001,-556.1476 406.5001,-556.1476"/>
<text text-anchor="start" x="403" y="-566" font-family="Helvetica,sans-Serif" font-size="10.00" fill="#000000">not (bus_active) &#160;&#160;</text>
</g>
<!-- STATE_START&#45;&gt;STATE_ADDRESS_1 -->
<g id="edge19" class="edge transition">
<title>STATE_START&#45;&gt;STATE_ADDRESS_1</title>
<path fill="none" stroke="#000000" d="M93.2327,-146.1296C91.0837,-151.4418 89.0891,-157.3448 88,-163 80.3143,-202.9084 76.1232,-228.1071 109,-252 157.2738,-287.0825 328.6015,-234.0898 377,-269 394.3029,-281.4808 395,-292.1655 395,-313.5 395,-481 395,-481 395,-481 395,-487.1509 395.6741,-493.6912 396.631,-499.8766"/>
<polygon fill="#000000" stroke="#000000" points="393.2063,-500.6072 398.4391,-509.8195 400.0934,-499.3547 393.2063,-500.6072"/>
<text text-anchor="middle" x="396.3895" y="-337" font-family="Helvetica,sans-Serif" font-size="10.00" fill="#000000"> </text>
</g>
<!-- STATE_ADDRESS_1&#45;&gt;STATE_ADDRESS_1 -->
<g id="edge20" class="edge transition">
<title>STATE_ADDRESS_1&#45;&gt;STATE_ADDRESS_1</title>
<path fill="none" stroke="#000000" d="M472.0446,-530.3124C484.9272,-530.0276 494,-529.2568 494,-528 494,-527.1163 489.5146,-526.4729 482.3731,-526.0697"/>
<polygon fill="#000000" stroke="#000000" points="482.1672,-522.5598 472.0446,-525.6876 481.9083,-529.555 482.1672,-522.5598"/>
<text text-anchor="start" x="494" y="-525" font-family="Helvetica,sans-Serif" font-size="10.00" fill="#000000">bit_count_reg &gt; 1 &#160;&#160;</text>
</g>
<!-- STATE_ADDRESS_1&#45;&gt;STATE_ADDRESS_1 -->
<g id="edge21" class="edge transition">
<title>STATE_ADDRESS_1&#45;&gt;STATE_ADDRESS_1</title>
<path fill="none" stroke="#000000" d="M472.2429,-532.5C523.0893,-533.6514 579.871,-532.1514 579.871,-528 579.871,-524.1243 530.3802,-522.5595 482.4326,-523.3057"/>
<polygon fill="#000000" stroke="#000000" points="482.1743,-519.8099 472.2429,-523.5 482.3079,-526.8086 482.1743,-519.8099"/>
<text text-anchor="start" x="579.871" y="-525" font-family="Helvetica,sans-Serif" font-size="10.00" fill="#000000">bit_count_reg &gt; 0 &#160;&#160;</text>
</g>
<!-- STATE_ADDRESS_2 -->
<g id="node8" class="node state regular">
<title>STATE_ADDRESS_2</title>
<polygon fill="#ffffff" fill-opacity="0.003922" stroke="transparent" stroke-width="2" points="556,-452 418,-452 418,-416 556,-416 556,-452"/>
<text text-anchor="start" x="428.659" y="-430.2" font-family="Helvetica,sans-Serif" font-size="12.00" fill="#000000">STATE_ADDRESS_2</text>
<path fill="none" stroke="#000000" stroke-width="2" d="M430.3333,-417C430.3333,-417 543.6667,-417 543.6667,-417 549.3333,-417 555,-422.6667 555,-428.3333 555,-428.3333 555,-439.6667 555,-439.6667 555,-445.3333 549.3333,-451 543.6667,-451 543.6667,-451 430.3333,-451 430.3333,-451 424.6667,-451 419,-445.3333 419,-439.6667 419,-439.6667 419,-428.3333 419,-428.3333 419,-422.6667 424.6667,-417 430.3333,-417"/>
</g>
<!-- STATE_ADDRESS_1&#45;&gt;STATE_ADDRESS_2 -->
<g id="edge22" class="edge transition">
<title>STATE_ADDRESS_1&#45;&gt;STATE_ADDRESS_2</title>
<path fill="none" stroke="#000000" d="M419.196,-509.8759C431.8626,-495.7014 449.6415,-475.806 463.816,-459.944"/>
<polygon fill="#000000" stroke="#000000" points="466.8001,-461.8573 470.8537,-452.0685 461.5805,-457.1929 466.8001,-461.8573"/>
<text text-anchor="start" x="455" y="-484" font-family="Helvetica,sans-Serif" font-size="10.00" fill="#000000">not (bit_count_reg &gt; 1) &#160;&#160;</text>
<text text-anchor="start" x="455" y="-472" font-family="Helvetica,sans-Serif" font-size="10.00" fill="#000000">not (bit_count_reg &gt; 0) &#160;&#160;</text>
</g>
<!-- STATE_ADDRESS_2&#45;&gt;STATE_WRITE_1 -->
<g id="edge24" class="edge transition">
<title>STATE_ADDRESS_2&#45;&gt;STATE_WRITE_1</title>
<path fill="none" stroke="#000000" d="M556.2473,-425.8226C706.7356,-408.0513 1062.1824,-366.0764 1213.1848,-348.2445"/>
<polygon fill="#000000" stroke="#000000" points="1213.7443,-351.7028 1223.2648,-347.0542 1212.9233,-344.7512 1213.7443,-351.7028"/>
<text text-anchor="start" x="983" y="-384" font-family="Helvetica,sans-Serif" font-size="10.00" fill="#000000">not (mode_read_reg) &#160;&#160;</text>
</g>
<!-- STATE_ADDRESS_2&#45;&gt;STATE_READ -->
<g id="edge23" class="edge transition">
<title>STATE_ADDRESS_2&#45;&gt;STATE_READ</title>
<path fill="none" stroke="#000000" d="M484.4935,-415.8759C482.6231,-402.3516 480.0324,-383.6192 477.8933,-368.1514"/>
<polygon fill="#000000" stroke="#000000" points="481.3359,-367.4947 476.4988,-358.0685 474.4019,-368.4537 481.3359,-367.4947"/>
<text text-anchor="start" x="482" y="-384" font-family="Helvetica,sans-Serif" font-size="10.00" fill="#000000">mode_read_reg &#160;&#160;</text>
</g>
<!-- STATE_WRITE_1&#45;&gt;STATE_WRITE_1 -->
<g id="edge26" class="edge transition">
<title>STATE_WRITE_1&#45;&gt;STATE_WRITE_1</title>
<path fill="none" stroke="#000000" d="M1342.7023,-344.7176C1355.3596,-344.2385 1364.5,-342.666 1364.5,-340 1364.5,-338.1255 1359.9811,-336.7915 1352.8982,-335.9982"/>
<polygon fill="#000000" stroke="#000000" points="1352.9229,-332.4914 1342.7023,-335.2824 1352.4326,-339.4742 1352.9229,-332.4914"/>
<text text-anchor="start" x="1364.5" y="-337" font-family="Helvetica,sans-Serif" font-size="10.00" fill="#000000">not (s_axis_data_tready &amp; s_axis_data_tvalid) &#160;&#160;</text>
</g>
<!-- STATE_WRITE_2 -->
<g id="node10" class="node state regular">
<title>STATE_WRITE_2</title>
<polygon fill="#ffffff" fill-opacity="0.003922" stroke="transparent" stroke-width="2" points="1454.5,-252 1335.5,-252 1335.5,-216 1454.5,-216 1454.5,-252"/>
<text text-anchor="start" x="1346.8298" y="-230.2" font-family="Helvetica,sans-Serif" font-size="12.00" fill="#000000">STATE_WRITE_2</text>
<path fill="none" stroke="#000000" stroke-width="2" d="M1347.8333,-217C1347.8333,-217 1442.1667,-217 1442.1667,-217 1447.8333,-217 1453.5,-222.6667 1453.5,-228.3333 1453.5,-228.3333 1453.5,-239.6667 1453.5,-239.6667 1453.5,-245.3333 1447.8333,-251 1442.1667,-251 1442.1667,-251 1347.8333,-251 1347.8333,-251 1342.1667,-251 1336.5,-245.3333 1336.5,-239.6667 1336.5,-239.6667 1336.5,-228.3333 1336.5,-228.3333 1336.5,-222.6667 1342.1667,-217 1347.8333,-217"/>
</g>
<!-- STATE_WRITE_1&#45;&gt;STATE_WRITE_2 -->
<g id="edge25" class="edge transition">
<title>STATE_WRITE_1&#45;&gt;STATE_WRITE_2</title>
<path fill="none" stroke="#000000" d="M1302.2535,-321.778C1320.444,-304.562 1347.8961,-278.5805 1368.2178,-259.3475"/>
<polygon fill="#000000" stroke="#000000" points="1370.7658,-261.7549 1375.6229,-252.339 1365.9541,-256.6708 1370.7658,-261.7549"/>
<text text-anchor="start" x="1357" y="-284" font-family="Helvetica,sans-Serif" font-size="10.00" fill="#000000">s_axis_data_tready &amp; s_axis_data_tvalid &#160;&#160;</text>
</g>
<!-- STATE_WRITE_2&#45;&gt;STATE_WRITE_2 -->
<g id="edge27" class="edge transition">
<title>STATE_WRITE_2&#45;&gt;STATE_WRITE_2</title>
<path fill="none" stroke="#000000" d="M1454.7023,-238.7176C1467.3596,-238.2385 1476.5,-236.666 1476.5,-234 1476.5,-232.1255 1471.9811,-230.7915 1464.8982,-229.9982"/>
<polygon fill="#000000" stroke="#000000" points="1464.9229,-226.4914 1454.7023,-229.2824 1464.4326,-233.4742 1464.9229,-226.4914"/>
<text text-anchor="start" x="1476.5" y="-231" font-family="Helvetica,sans-Serif" font-size="10.00" fill="#000000">bit_count_reg &gt; 0 &#160;&#160;</text>
</g>
<!-- STATE_WRITE_3 -->
<g id="node11" class="node state regular">
<title>STATE_WRITE_3</title>
<polygon fill="#ffffff" fill-opacity="0.003922" stroke="transparent" stroke-width="2" points="1780.5,-146 1661.5,-146 1661.5,-110 1780.5,-110 1780.5,-146"/>
<text text-anchor="start" x="1672.8298" y="-124.2" font-family="Helvetica,sans-Serif" font-size="12.00" fill="#000000">STATE_WRITE_3</text>
<path fill="none" stroke="#000000" stroke-width="2" d="M1673.8333,-111C1673.8333,-111 1768.1667,-111 1768.1667,-111 1773.8333,-111 1779.5,-116.6667 1779.5,-122.3333 1779.5,-122.3333 1779.5,-133.6667 1779.5,-133.6667 1779.5,-139.3333 1773.8333,-145 1768.1667,-145 1768.1667,-145 1673.8333,-145 1673.8333,-145 1668.1667,-145 1662.5,-139.3333 1662.5,-133.6667 1662.5,-133.6667 1662.5,-122.3333 1662.5,-122.3333 1662.5,-116.6667 1668.1667,-111 1673.8333,-111"/>
</g>
<!-- STATE_WRITE_2&#45;&gt;STATE_WRITE_3 -->
<g id="edge28" class="edge transition">
<title>STATE_WRITE_2&#45;&gt;STATE_WRITE_3</title>
<path fill="none" stroke="#000000" d="M1454.6012,-228.9274C1514.6528,-223.1682 1602.7708,-212.7571 1634,-199 1658.0716,-188.396 1680.9358,-169.2478 1697.179,-153.5071"/>
<polygon fill="#000000" stroke="#000000" points="1699.99,-155.6466 1704.5973,-146.1059 1695.046,-150.6911 1699.99,-155.6466"/>
<text text-anchor="start" x="1686" y="-178" font-family="Helvetica,sans-Serif" font-size="10.00" fill="#000000">not (bit_count_reg &gt; 0) &#160;&#160;</text>
</g>
<!-- STATE_WRITE_3&#45;&gt;STATE_IDLE -->
<g id="edge30" class="edge transition">
<title>STATE_WRITE_3&#45;&gt;STATE_IDLE</title>
<path fill="none" stroke="#000000" d="M1780.7839,-145.7727C1786.7299,-148.2511 1792.5688,-150.9927 1798,-154 1803.5262,-157.0599 1805.536,-157.7178 1809,-163 1830.9978,-196.5438 1847.2321,-219.299 1824,-252 1822.5093,-254.0983 1651.2943,-311.8332 1649,-313 1617.681,-328.9276 1617.3335,-346.8894 1584,-358 1536.7424,-373.7518 1178.4291,-348.9008 1136,-375 1121.9359,-383.6512 1118,-390.9881 1118,-407.5 1118,-663 1118,-663 1118,-663 1118,-671.8572 1115.1842,-680.8649 1111.4815,-688.881"/>
<polygon fill="#000000" stroke="#000000" points="1108.3678,-687.2825 1106.8431,-697.7671 1114.5733,-690.5217 1108.3678,-687.2825"/>
<text text-anchor="start" x="1118" y="-431" font-family="Helvetica,sans-Serif" font-size="10.00" fill="#000000">mode_stop_reg &#160;&#160;</text>
</g>
<!-- STATE_WRITE_3&#45;&gt;STATE_ACTIVE_WRITE -->
<g id="edge31" class="edge transition">
<title>STATE_WRITE_3&#45;&gt;STATE_ACTIVE_WRITE</title>
<path fill="none" stroke="#000000" d="M1661.2777,-118.0611C1576.2846,-104.0927 1415.4827,-78.3151 1278,-60 1231.2589,-53.7733 1179.0435,-47.7921 1136.1928,-43.1397"/>
<polygon fill="#000000" stroke="#000000" points="1136.3932,-39.6411 1126.0751,-42.047 1135.6414,-46.6006 1136.3932,-39.6411"/>
<text text-anchor="start" x="1500" y="-84" font-family="Helvetica,sans-Serif" font-size="10.00" fill="#000000">not (mode_write_multiple_reg &amp;&amp; !last_reg) &#160;&#160;</text>
<text text-anchor="start" x="1500" y="-72" font-family="Helvetica,sans-Serif" font-size="10.00" fill="#000000">not (mode_stop_reg) &#160;&#160;</text>
</g>
<!-- STATE_WRITE_3&#45;&gt;STATE_WRITE_1 -->
<g id="edge29" class="edge transition">
<title>STATE_WRITE_3&#45;&gt;STATE_WRITE_1</title>
<path fill="none" stroke="#000000" d="M1780.7701,-145.1008C1788.3745,-149.7237 1795.1728,-155.5817 1800,-163 1808.7265,-176.4108 1810.6761,-187.0827 1800,-199 1776.9893,-224.6861 1677.028,-201.48 1645.748,-216 1593.6371,-240.1896 1603.8711,-280.3005 1552,-305 1517.8245,-321.2734 1420.5051,-330.91 1352.8157,-335.8281"/>
<polygon fill="#000000" stroke="#000000" points="1352.3659,-332.3511 1342.638,-336.5485 1352.8602,-339.3337 1352.3659,-332.3511"/>
<text text-anchor="start" x="1645" y="-231" font-family="Helvetica,sans-Serif" font-size="10.00" fill="#000000">mode_write_multiple_reg &amp;&amp; !last_reg &#160;&#160;</text>
</g>
<!-- STATE_READ&#45;&gt;STATE_ACTIVE_READ -->
<g id="edge34" class="edge transition">
<title>STATE_READ&#45;&gt;STATE_ACTIVE_READ</title>
<path fill="none" stroke="#000000" d="M524.3367,-338.5168C614.9108,-335.3253 797.7674,-326.2949 817,-305 827.7241,-293.1259 827.8559,-280.7537 817,-269 805.1473,-256.1671 586.8795,-243.8556 462.3099,-237.8355"/>
<polygon fill="#000000" stroke="#000000" points="462.189,-234.3258 452.0329,-237.3428 461.8538,-241.3177 462.189,-234.3258"/>
<text text-anchor="start" x="825" y="-290" font-family="Helvetica,sans-Serif" font-size="10.00" fill="#000000">not (mode_stop_reg) &#160;&#160;</text>
<text text-anchor="start" x="825" y="-278" font-family="Helvetica,sans-Serif" font-size="10.00" fill="#000000">not (bit_count_reg &gt; 0) &#160;&#160;</text>
</g>
<!-- STATE_READ&#45;&gt;STATE_READ -->
<g id="edge32" class="edge transition">
<title>STATE_READ&#45;&gt;STATE_READ</title>
<path fill="none" stroke="#000000" d="M524.1354,-344.8081C536.6477,-344.4718 546,-342.8691 546,-340 546,-337.9826 541.3764,-336.5914 534.2816,-335.8263"/>
<polygon fill="#000000" stroke="#000000" points="534.3343,-332.3228 524.1354,-335.1919 533.8975,-339.3092 534.3343,-332.3228"/>
<text text-anchor="start" x="546" y="-337" font-family="Helvetica,sans-Serif" font-size="10.00" fill="#000000">bit_count_reg &gt; 0 &#160;&#160;</text>
</g>
<!-- STATE_READ&#45;&gt;STATE_STOP -->
<g id="edge33" class="edge transition">
<title>STATE_READ&#45;&gt;STATE_STOP</title>
<path fill="none" stroke="#000000" d="M444.1759,-321.9801C437.1261,-316.9745 429.9395,-311.1956 424,-305 410.8607,-291.2941 417.2866,-278.759 401,-269 359.0895,-243.887 228.0333,-267.7852 181.795,-252 141.1526,-238.1251 121.4048,-236.7883 101,-199 93.3979,-184.9214 90.0119,-174.6302 101,-163 119.8991,-142.9966 505.4984,-132.5529 656.8116,-129.2123"/>
<polygon fill="#000000" stroke="#000000" points="656.9421,-132.7104 666.8635,-128.9933 656.7895,-125.7121 656.9421,-132.7104"/>
<text text-anchor="start" x="181" y="-237" font-family="Helvetica,sans-Serif" font-size="10.00" fill="#000000">mode_stop_reg &#160;&#160;</text>
<text text-anchor="start" x="181" y="-225" font-family="Helvetica,sans-Serif" font-size="10.00" fill="#000000">not (bit_count_reg &gt; 0) &#160;&#160;</text>
</g>
<!-- STATE_STOP&#45;&gt;STATE_IDLE -->
<g id="edge35" class="edge transition">
<title>STATE_STOP&#45;&gt;STATE_IDLE</title>
<path fill="none" stroke="#000000" d="M767.0747,-128.7451C882.3206,-130.874 1159.0741,-138.5038 1193,-163 1226.0347,-186.8527 1228.9169,-213.7042 1215,-252 1176.5348,-357.8468 1071,-347.8807 1071,-460.5 1071,-663 1071,-663 1071,-663 1071,-671.6999 1073.6402,-680.5884 1077.1315,-688.5392"/>
<polygon fill="#000000" stroke="#000000" points="1074.101,-690.3055 1081.692,-697.6965 1080.367,-687.1849 1074.101,-690.3055"/>
<text text-anchor="middle" x="1078.3895" y="-431" font-family="Helvetica,sans-Serif" font-size="10.00" fill="#000000"> </text>
</g>
</g>
</svg>
