<?xml version="1.0" encoding="UTF-8" standalone="no"?>
<!DOCTYPE svg PUBLIC "-//W3C//DTD SVG 1.1//EN"
 "http://www.w3.org/Graphics/SVG/1.1/DTD/svg11.dtd">
<!-- Generated by graphviz version 2.40.1 (20161225.0304)
 -->
<!-- Title: state transitions Pages: 1 -->
<svg width="914pt" height="692pt"
 viewBox="0.00 0.00 914.00 692.00" xmlns="http://www.w3.org/2000/svg" xmlns:xlink="http://www.w3.org/1999/xlink">
<g id="graph0" class="graph" transform="scale(1 1) rotate(0) translate(4 688)">
<title>state transitions</title>
<polygon fill="#ffffff" stroke="transparent" points="-4,4 -4,-688 910,-688 910,4 -4,4"/>
<g id="clust1" class="cluster state regular">
<title>cluster_phy_state_next</title>
<path fill="none" stroke="#000000" stroke-width="2" d="M20,-8C20,-8 886,-8 886,-8 892,-8 898,-14 898,-20 898,-20 898,-664 898,-664 898,-670 892,-676 886,-676 886,-676 20,-676 20,-676 14,-676 8,-670 8,-664 8,-664 8,-20 8,-20 8,-14 14,-8 20,-8"/>
<text text-anchor="start" x="412.8146" y="-657.2" font-family="Helvetica,sans-Serif" font-size="12.00" fill="#000000">phy_state_next</text>
</g>
<!-- phy_state_next -->
<!-- PHY_STATE_IDLE -->
<g id="node2" class="node state regular">
<title>PHY_STATE_IDLE</title>
<polygon fill="#ffffff" fill-opacity="0.003922" stroke="transparent" stroke-width="2" points="680.5,-638 555.5,-638 555.5,-602 680.5,-602 680.5,-638"/>
<text text-anchor="start" x="566.8244" y="-616.2" font-family="Helvetica,sans-Serif" font-size="12.00" fill="#000000">PHY_STATE_IDLE</text>
<path fill="none" stroke="#000000" stroke-width="2" d="M567.8333,-603C567.8333,-603 668.1667,-603 668.1667,-603 673.8333,-603 679.5,-608.6667 679.5,-614.3333 679.5,-614.3333 679.5,-625.6667 679.5,-625.6667 679.5,-631.3333 673.8333,-637 668.1667,-637 668.1667,-637 567.8333,-637 567.8333,-637 562.1667,-637 556.5,-631.3333 556.5,-625.6667 556.5,-625.6667 556.5,-614.3333 556.5,-614.3333 556.5,-608.6667 562.1667,-603 567.8333,-603"/>
</g>
<!-- PHY_STATE_IDLE&#45;&gt;PHY_STATE_IDLE -->
<g id="edge2" class="edge transition">
<title>PHY_STATE_IDLE&#45;&gt;PHY_STATE_IDLE</title>
<path fill="none" stroke="#000000" d="M680.6458,-624.689C693.3807,-624.1782 702.5,-622.6152 702.5,-620 702.5,-618.1612 697.9916,-616.8425 690.8879,-616.0441"/>
<polygon fill="#000000" stroke="#000000" points="690.8702,-612.534 680.6458,-615.311 690.3704,-619.5161 690.8702,-612.534"/>
<text text-anchor="start" x="702.5" y="-617" font-family="Helvetica,sans-Serif" font-size="10.00" fill="#000000">not (phy_start_bit) &#160;&#160;</text>
</g>
<!-- PHY_STATE_START_1 -->
<g id="node6" class="node state regular">
<title>PHY_STATE_START_1</title>
<polygon fill="#ffffff" fill-opacity="0.003922" stroke="transparent" stroke-width="2" points="585.5,-556 434.5,-556 434.5,-520 585.5,-520 585.5,-556"/>
<text text-anchor="start" x="445.8242" y="-534.2" font-family="Helvetica,sans-Serif" font-size="12.00" fill="#000000">PHY_STATE_START_1</text>
<path fill="none" stroke="#000000" stroke-width="2" d="M446.8333,-521C446.8333,-521 573.1667,-521 573.1667,-521 578.8333,-521 584.5,-526.6667 584.5,-532.3333 584.5,-532.3333 584.5,-543.6667 584.5,-543.6667 584.5,-549.3333 578.8333,-555 573.1667,-555 573.1667,-555 446.8333,-555 446.8333,-555 441.1667,-555 435.5,-549.3333 435.5,-543.6667 435.5,-543.6667 435.5,-532.3333 435.5,-532.3333 435.5,-526.6667 441.1667,-521 446.8333,-521"/>
</g>
<!-- PHY_STATE_IDLE&#45;&gt;PHY_STATE_START_1 -->
<g id="edge1" class="edge transition">
<title>PHY_STATE_IDLE&#45;&gt;PHY_STATE_START_1</title>
<path fill="none" stroke="#000000" d="M594.0313,-601.8015C578.7905,-590.2298 558.87,-575.105 542.2498,-562.486"/>
<polygon fill="#000000" stroke="#000000" points="543.9827,-559.4071 533.9017,-556.1476 539.7497,-564.9823 543.9827,-559.4071"/>
<text text-anchor="start" x="571" y="-576" font-family="Helvetica,sans-Serif" font-size="10.00" fill="#000000">phy_start_bit &#160;&#160;</text>
</g>
<!-- PHY_STATE_ACTIVE -->
<g id="node3" class="node state regular">
<title>PHY_STATE_ACTIVE</title>
<polygon fill="#ffffff" fill-opacity="0.003922" stroke="transparent" stroke-width="2" points="581,-386 439,-386 439,-350 581,-350 581,-386"/>
<text text-anchor="start" x="449.9916" y="-364.2" font-family="Helvetica,sans-Serif" font-size="12.00" fill="#000000">PHY_STATE_ACTIVE</text>
<path fill="none" stroke="#000000" stroke-width="2" d="M451.3333,-351C451.3333,-351 568.6667,-351 568.6667,-351 574.3333,-351 580,-356.6667 580,-362.3333 580,-362.3333 580,-373.6667 580,-373.6667 580,-379.3333 574.3333,-385 568.6667,-385 568.6667,-385 451.3333,-385 451.3333,-385 445.6667,-385 440,-379.3333 440,-373.6667 440,-373.6667 440,-362.3333 440,-362.3333 440,-356.6667 445.6667,-351 451.3333,-351"/>
</g>
<!-- PHY_STATE_ACTIVE&#45;&gt;PHY_STATE_ACTIVE -->
<g id="edge7" class="edge transition">
<title>PHY_STATE_ACTIVE&#45;&gt;PHY_STATE_ACTIVE</title>
<path fill="none" stroke="#000000" d="M581.3551,-373.6481C594.0987,-372.9139 603,-371.0313 603,-368 603,-365.8687 598.5993,-364.3051 591.5566,-363.3094"/>
<polygon fill="#000000" stroke="#000000" points="591.6385,-359.8018 581.3551,-362.3519 590.9843,-366.7712 591.6385,-359.8018"/>
<text text-anchor="start" x="603" y="-383" font-family="Helvetica,sans-Serif" font-size="10.00" fill="#000000">not (phy_start_bit) &#160;&#160;</text>
<text text-anchor="start" x="603" y="-371" font-family="Helvetica,sans-Serif" font-size="10.00" fill="#000000">not (phy_write_bit) &#160;&#160;</text>
<text text-anchor="start" x="603" y="-359" font-family="Helvetica,sans-Serif" font-size="10.00" fill="#000000">not (phy_read_bit) &#160;&#160;</text>
<text text-anchor="start" x="603" y="-347" font-family="Helvetica,sans-Serif" font-size="10.00" fill="#000000">not (phy_stop_bit) &#160;&#160;</text>
</g>
<!-- PHY_STATE_REPEATED_START_1 -->
<g id="node4" class="node state regular">
<title>PHY_STATE_REPEATED_START_1</title>
<polygon fill="#ffffff" fill-opacity="0.003922" stroke="transparent" stroke-width="2" points="460,-298 238,-298 238,-262 460,-262 460,-298"/>
<text text-anchor="start" x="248.6536" y="-276.2" font-family="Helvetica,sans-Serif" font-size="12.00" fill="#000000">PHY_STATE_REPEATED_START_1</text>
<path fill="none" stroke="#000000" stroke-width="2" d="M250.3333,-263C250.3333,-263 447.6667,-263 447.6667,-263 453.3333,-263 459,-268.6667 459,-274.3333 459,-274.3333 459,-285.6667 459,-285.6667 459,-291.3333 453.3333,-297 447.6667,-297 447.6667,-297 250.3333,-297 250.3333,-297 244.6667,-297 239,-291.3333 239,-285.6667 239,-285.6667 239,-274.3333 239,-274.3333 239,-268.6667 244.6667,-263 250.3333,-263"/>
</g>
<!-- PHY_STATE_ACTIVE&#45;&gt;PHY_STATE_REPEATED_START_1 -->
<g id="edge3" class="edge transition">
<title>PHY_STATE_ACTIVE&#45;&gt;PHY_STATE_REPEATED_START_1</title>
<path fill="none" stroke="#000000" d="M459.7027,-349.9201C443.8536,-343.48 426.5461,-335.6535 411.424,-327 400.1096,-320.5254 388.4938,-312.2892 378.397,-304.5262"/>
<polygon fill="#000000" stroke="#000000" points="380.3362,-301.5985 370.3129,-298.1656 376.0077,-307.0998 380.3362,-301.5985"/>
<text text-anchor="start" x="411" y="-318" font-family="Helvetica,sans-Serif" font-size="10.00" fill="#000000">phy_start_bit &#160;&#160;</text>
</g>
<!-- PHY_STATE_WRITE_BIT_1 -->
<g id="node8" class="node state regular">
<title>PHY_STATE_WRITE_BIT_1</title>
<polygon fill="#ffffff" fill-opacity="0.003922" stroke="transparent" stroke-width="2" points="216,-298 40,-298 40,-262 216,-262 216,-298"/>
<text text-anchor="start" x="50.9906" y="-276.2" font-family="Helvetica,sans-Serif" font-size="12.00" fill="#000000">PHY_STATE_WRITE_BIT_1</text>
<path fill="none" stroke="#000000" stroke-width="2" d="M52.3333,-263C52.3333,-263 203.6667,-263 203.6667,-263 209.3333,-263 215,-268.6667 215,-274.3333 215,-274.3333 215,-285.6667 215,-285.6667 215,-291.3333 209.3333,-297 203.6667,-297 203.6667,-297 52.3333,-297 52.3333,-297 46.6667,-297 41,-291.3333 41,-285.6667 41,-285.6667 41,-274.3333 41,-274.3333 41,-268.6667 46.6667,-263 52.3333,-263"/>
</g>
<!-- PHY_STATE_ACTIVE&#45;&gt;PHY_STATE_WRITE_BIT_1 -->
<g id="edge4" class="edge transition">
<title>PHY_STATE_ACTIVE&#45;&gt;PHY_STATE_WRITE_BIT_1</title>
<path fill="none" stroke="#000000" d="M438.913,-353.0516C403.3788,-345.4641 359.748,-335.9739 320.765,-327 284.4073,-318.6304 244.3097,-308.93 210.1447,-300.523"/>
<polygon fill="#000000" stroke="#000000" points="210.757,-297.0692 200.2099,-298.0737 209.0814,-303.8657 210.757,-297.0692"/>
<text text-anchor="start" x="320" y="-318" font-family="Helvetica,sans-Serif" font-size="10.00" fill="#000000">phy_write_bit &#160;&#160;</text>
</g>
<!-- PHY_STATE_READ_BIT_1 -->
<g id="node11" class="node state regular">
<title>PHY_STATE_READ_BIT_1</title>
<polygon fill="#ffffff" fill-opacity="0.003922" stroke="transparent" stroke-width="2" points="676,-298 506,-298 506,-262 676,-262 676,-298"/>
<text text-anchor="start" x="516.654" y="-276.2" font-family="Helvetica,sans-Serif" font-size="12.00" fill="#000000">PHY_STATE_READ_BIT_1</text>
<path fill="none" stroke="#000000" stroke-width="2" d="M518.3333,-263C518.3333,-263 663.6667,-263 663.6667,-263 669.3333,-263 675,-268.6667 675,-274.3333 675,-274.3333 675,-285.6667 675,-285.6667 675,-291.3333 669.3333,-297 663.6667,-297 663.6667,-297 518.3333,-297 518.3333,-297 512.6667,-297 507,-291.3333 507,-285.6667 507,-285.6667 507,-274.3333 507,-274.3333 507,-268.6667 512.6667,-263 518.3333,-263"/>
</g>
<!-- PHY_STATE_ACTIVE&#45;&gt;PHY_STATE_READ_BIT_1 -->
<g id="edge5" class="edge transition">
<title>PHY_STATE_ACTIVE&#45;&gt;PHY_STATE_READ_BIT_1</title>
<path fill="none" stroke="#000000" d="M526.7833,-349.7663C538.5127,-337.0232 554.3401,-319.8281 567.3466,-305.6976"/>
<polygon fill="#000000" stroke="#000000" points="570.041,-307.9383 574.2382,-298.2103 564.8907,-303.1976 570.041,-307.9383"/>
<text text-anchor="start" x="558" y="-318" font-family="Helvetica,sans-Serif" font-size="10.00" fill="#000000">phy_read_bit &#160;&#160;</text>
</g>
<!-- PHY_STATE_STOP_1 -->
<g id="node15" class="node state regular">
<title>PHY_STATE_STOP_1</title>
<polygon fill="#ffffff" fill-opacity="0.003922" stroke="transparent" stroke-width="2" points="866,-298 722,-298 722,-262 866,-262 866,-298"/>
<text text-anchor="start" x="732.6536" y="-276.2" font-family="Helvetica,sans-Serif" font-size="12.00" fill="#000000">PHY_STATE_STOP_1</text>
<path fill="none" stroke="#000000" stroke-width="2" d="M734.3333,-263C734.3333,-263 853.6667,-263 853.6667,-263 859.3333,-263 865,-268.6667 865,-274.3333 865,-274.3333 865,-285.6667 865,-285.6667 865,-291.3333 859.3333,-297 853.6667,-297 853.6667,-297 734.3333,-297 734.3333,-297 728.6667,-297 723,-291.3333 723,-285.6667 723,-285.6667 723,-274.3333 723,-274.3333 723,-268.6667 728.6667,-263 734.3333,-263"/>
</g>
<!-- PHY_STATE_ACTIVE&#45;&gt;PHY_STATE_STOP_1 -->
<g id="edge6" class="edge transition">
<title>PHY_STATE_ACTIVE&#45;&gt;PHY_STATE_STOP_1</title>
<path fill="none" stroke="#000000" d="M581.2571,-363.1682C618.9821,-358.9207 665.5393,-350.9495 705,-336 725.3098,-328.3057 745.9638,-315.6687 762.2559,-304.3447"/>
<polygon fill="#000000" stroke="#000000" points="764.7207,-306.8856 770.8283,-298.2284 760.6551,-301.1873 764.7207,-306.8856"/>
<text text-anchor="start" x="744" y="-318" font-family="Helvetica,sans-Serif" font-size="10.00" fill="#000000">phy_stop_bit &#160;&#160;</text>
</g>
<!-- PHY_STATE_REPEATED_START_2 -->
<g id="node5" class="node state regular">
<title>PHY_STATE_REPEATED_START_2</title>
<polygon fill="#ffffff" fill-opacity="0.003922" stroke="transparent" stroke-width="2" points="239,-216 17,-216 17,-180 239,-180 239,-216"/>
<text text-anchor="start" x="27.6536" y="-194.2" font-family="Helvetica,sans-Serif" font-size="12.00" fill="#000000">PHY_STATE_REPEATED_START_2</text>
<path fill="none" stroke="#000000" stroke-width="2" d="M29.3333,-181C29.3333,-181 226.6667,-181 226.6667,-181 232.3333,-181 238,-186.6667 238,-192.3333 238,-192.3333 238,-203.6667 238,-203.6667 238,-209.3333 232.3333,-215 226.6667,-215 226.6667,-215 29.3333,-215 29.3333,-215 23.6667,-215 18,-209.3333 18,-203.6667 18,-203.6667 18,-192.3333 18,-192.3333 18,-186.6667 23.6667,-181 29.3333,-181"/>
</g>
<!-- PHY_STATE_REPEATED_START_1&#45;&gt;PHY_STATE_REPEATED_START_2 -->
<g id="edge8" class="edge transition">
<title>PHY_STATE_REPEATED_START_1&#45;&gt;PHY_STATE_REPEATED_START_2</title>
<path fill="none" stroke="#000000" d="M300.227,-261.9032C266.6482,-249.4441 221.8723,-232.8304 186.3921,-219.6658"/>
<polygon fill="#000000" stroke="#000000" points="187.2414,-216.2479 176.6484,-216.0505 184.8063,-222.8107 187.2414,-216.2479"/>
<text text-anchor="middle" x="254.3895" y="-236" font-family="Helvetica,sans-Serif" font-size="10.00" fill="#000000"> </text>
</g>
<!-- PHY_STATE_REPEATED_START_2&#45;&gt;PHY_STATE_START_1 -->
<g id="edge9" class="edge transition">
<title>PHY_STATE_REPEATED_START_2&#45;&gt;PHY_STATE_START_1</title>
<path fill="none" stroke="#000000" d="M81.2251,-216.0448C61.3726,-226.3131 40.2519,-241.3277 29,-262 -.4899,-316.1796 38,-338.8146 38,-400.5 38,-497 38,-497 38,-497 38,-516.171 288.3964,-529.166 424.4343,-534.8113"/>
<polygon fill="#000000" stroke="#000000" points="424.2917,-538.3083 434.4268,-535.2213 424.5788,-531.3142 424.2917,-538.3083"/>
<text text-anchor="middle" x="38.3895" y="-365" font-family="Helvetica,sans-Serif" font-size="10.00" fill="#000000"> </text>
</g>
<!-- PHY_STATE_START_2 -->
<g id="node7" class="node state regular">
<title>PHY_STATE_START_2</title>
<polygon fill="#ffffff" fill-opacity="0.003922" stroke="transparent" stroke-width="2" points="585.5,-474 434.5,-474 434.5,-438 585.5,-438 585.5,-474"/>
<text text-anchor="start" x="445.8242" y="-452.2" font-family="Helvetica,sans-Serif" font-size="12.00" fill="#000000">PHY_STATE_START_2</text>
<path fill="none" stroke="#000000" stroke-width="2" d="M446.8333,-439C446.8333,-439 573.1667,-439 573.1667,-439 578.8333,-439 584.5,-444.6667 584.5,-450.3333 584.5,-450.3333 584.5,-461.6667 584.5,-461.6667 584.5,-467.3333 578.8333,-473 573.1667,-473 573.1667,-473 446.8333,-473 446.8333,-473 441.1667,-473 435.5,-467.3333 435.5,-461.6667 435.5,-461.6667 435.5,-450.3333 435.5,-450.3333 435.5,-444.6667 441.1667,-439 446.8333,-439"/>
</g>
<!-- PHY_STATE_START_1&#45;&gt;PHY_STATE_START_2 -->
<g id="edge10" class="edge transition">
<title>PHY_STATE_START_1&#45;&gt;PHY_STATE_START_2</title>
<path fill="none" stroke="#000000" d="M510,-519.8015C510,-509.3976 510,-496.1215 510,-484.3768"/>
<polygon fill="#000000" stroke="#000000" points="513.5001,-484.1476 510,-474.1476 506.5001,-484.1476 513.5001,-484.1476"/>
<text text-anchor="middle" x="511.3895" y="-494" font-family="Helvetica,sans-Serif" font-size="10.00" fill="#000000"> </text>
</g>
<!-- PHY_STATE_START_2&#45;&gt;PHY_STATE_ACTIVE -->
<g id="edge11" class="edge transition">
<title>PHY_STATE_START_2&#45;&gt;PHY_STATE_ACTIVE</title>
<path fill="none" stroke="#000000" d="M510,-437.7663C510,-425.8492 510,-410.0384 510,-396.4817"/>
<polygon fill="#000000" stroke="#000000" points="513.5001,-396.2103 510,-386.2103 506.5001,-396.2103 513.5001,-396.2103"/>
<text text-anchor="middle" x="511.3895" y="-412" font-family="Helvetica,sans-Serif" font-size="10.00" fill="#000000"> </text>
</g>
<!-- PHY_STATE_WRITE_BIT_2 -->
<g id="node9" class="node state regular">
<title>PHY_STATE_WRITE_BIT_2</title>
<polygon fill="#ffffff" fill-opacity="0.003922" stroke="transparent" stroke-width="2" points="437,-216 261,-216 261,-180 437,-180 437,-216"/>
<text text-anchor="start" x="271.9906" y="-194.2" font-family="Helvetica,sans-Serif" font-size="12.00" fill="#000000">PHY_STATE_WRITE_BIT_2</text>
<path fill="none" stroke="#000000" stroke-width="2" d="M273.3333,-181C273.3333,-181 424.6667,-181 424.6667,-181 430.3333,-181 436,-186.6667 436,-192.3333 436,-192.3333 436,-203.6667 436,-203.6667 436,-209.3333 430.3333,-215 424.6667,-215 424.6667,-215 273.3333,-215 273.3333,-215 267.6667,-215 262,-209.3333 262,-203.6667 262,-203.6667 262,-192.3333 262,-192.3333 262,-186.6667 267.6667,-181 273.3333,-181"/>
</g>
<!-- PHY_STATE_WRITE_BIT_1&#45;&gt;PHY_STATE_WRITE_BIT_2 -->
<g id="edge12" class="edge transition">
<title>PHY_STATE_WRITE_BIT_1&#45;&gt;PHY_STATE_WRITE_BIT_2</title>
<path fill="none" stroke="#000000" d="M157.4268,-261.8617C173.9504,-252.2671 195.2144,-240.8768 215.221,-233 228.6519,-227.7121 243.1533,-222.9775 257.4815,-218.8279"/>
<polygon fill="#000000" stroke="#000000" points="258.6798,-222.1267 267.3581,-216.049 256.7838,-215.3884 258.6798,-222.1267"/>
<text text-anchor="middle" x="216.3895" y="-236" font-family="Helvetica,sans-Serif" font-size="10.00" fill="#000000"> </text>
</g>
<!-- PHY_STATE_WRITE_BIT_3 -->
<g id="node10" class="node state regular">
<title>PHY_STATE_WRITE_BIT_3</title>
<polygon fill="#ffffff" fill-opacity="0.003922" stroke="transparent" stroke-width="2" points="454,-134 278,-134 278,-98 454,-98 454,-134"/>
<text text-anchor="start" x="288.9906" y="-112.2" font-family="Helvetica,sans-Serif" font-size="12.00" fill="#000000">PHY_STATE_WRITE_BIT_3</text>
<path fill="none" stroke="#000000" stroke-width="2" d="M290.3333,-99C290.3333,-99 441.6667,-99 441.6667,-99 447.3333,-99 453,-104.6667 453,-110.3333 453,-110.3333 453,-121.6667 453,-121.6667 453,-127.3333 447.3333,-133 441.6667,-133 441.6667,-133 290.3333,-133 290.3333,-133 284.6667,-133 279,-127.3333 279,-121.6667 279,-121.6667 279,-110.3333 279,-110.3333 279,-104.6667 284.6667,-99 290.3333,-99"/>
</g>
<!-- PHY_STATE_WRITE_BIT_2&#45;&gt;PHY_STATE_WRITE_BIT_3 -->
<g id="edge13" class="edge transition">
<title>PHY_STATE_WRITE_BIT_2&#45;&gt;PHY_STATE_WRITE_BIT_3</title>
<path fill="none" stroke="#000000" d="M352.7729,-179.8015C354.9518,-169.2915 357.7384,-155.8503 360.1915,-144.0177"/>
<polygon fill="#000000" stroke="#000000" points="363.6347,-144.6499 362.2377,-134.1476 356.7805,-143.2288 363.6347,-144.6499"/>
<text text-anchor="middle" x="359.3895" y="-154" font-family="Helvetica,sans-Serif" font-size="10.00" fill="#000000"> </text>
</g>
<!-- PHY_STATE_WRITE_BIT_3&#45;&gt;PHY_STATE_ACTIVE -->
<g id="edge14" class="edge transition">
<title>PHY_STATE_WRITE_BIT_3&#45;&gt;PHY_STATE_ACTIVE</title>
<path fill="none" stroke="#000000" d="M397.4246,-134.0882C414.5152,-145.3476 434.7992,-161.2451 448,-180 466.4896,-206.2689 491.0364,-294.4211 502.9349,-340.0713"/>
<polygon fill="#000000" stroke="#000000" points="499.5878,-341.1083 505.4763,-349.916 506.3656,-339.3586 499.5878,-341.1083"/>
<text text-anchor="middle" x="476.3895" y="-236" font-family="Helvetica,sans-Serif" font-size="10.00" fill="#000000"> </text>
</g>
<!-- PHY_STATE_READ_BIT_2 -->
<g id="node12" class="node state regular">
<title>PHY_STATE_READ_BIT_2</title>
<polygon fill="#ffffff" fill-opacity="0.003922" stroke="transparent" stroke-width="2" points="653,-216 483,-216 483,-180 653,-180 653,-216"/>
<text text-anchor="start" x="493.654" y="-194.2" font-family="Helvetica,sans-Serif" font-size="12.00" fill="#000000">PHY_STATE_READ_BIT_2</text>
<path fill="none" stroke="#000000" stroke-width="2" d="M495.3333,-181C495.3333,-181 640.6667,-181 640.6667,-181 646.3333,-181 652,-186.6667 652,-192.3333 652,-192.3333 652,-203.6667 652,-203.6667 652,-209.3333 646.3333,-215 640.6667,-215 640.6667,-215 495.3333,-215 495.3333,-215 489.6667,-215 484,-209.3333 484,-203.6667 484,-203.6667 484,-192.3333 484,-192.3333 484,-186.6667 489.6667,-181 495.3333,-181"/>
</g>
<!-- PHY_STATE_READ_BIT_1&#45;&gt;PHY_STATE_READ_BIT_2 -->
<g id="edge15" class="edge transition">
<title>PHY_STATE_READ_BIT_1&#45;&gt;PHY_STATE_READ_BIT_2</title>
<path fill="none" stroke="#000000" d="M585.8956,-261.8015C582.9476,-251.2915 579.1775,-237.8503 575.8586,-226.0177"/>
<polygon fill="#000000" stroke="#000000" points="579.1609,-224.8308 573.0902,-216.1476 572.421,-226.7213 579.1609,-224.8308"/>
<text text-anchor="middle" x="582.3895" y="-236" font-family="Helvetica,sans-Serif" font-size="10.00" fill="#000000"> </text>
</g>
<!-- PHY_STATE_READ_BIT_3 -->
<g id="node13" class="node state regular">
<title>PHY_STATE_READ_BIT_3</title>
<polygon fill="#ffffff" fill-opacity="0.003922" stroke="transparent" stroke-width="2" points="668,-134 498,-134 498,-98 668,-98 668,-134"/>
<text text-anchor="start" x="508.654" y="-112.2" font-family="Helvetica,sans-Serif" font-size="12.00" fill="#000000">PHY_STATE_READ_BIT_3</text>
<path fill="none" stroke="#000000" stroke-width="2" d="M510.3333,-99C510.3333,-99 655.6667,-99 655.6667,-99 661.3333,-99 667,-104.6667 667,-110.3333 667,-110.3333 667,-121.6667 667,-121.6667 667,-127.3333 661.3333,-133 655.6667,-133 655.6667,-133 510.3333,-133 510.3333,-133 504.6667,-133 499,-127.3333 499,-121.6667 499,-121.6667 499,-110.3333 499,-110.3333 499,-104.6667 504.6667,-99 510.3333,-99"/>
</g>
<!-- PHY_STATE_READ_BIT_2&#45;&gt;PHY_STATE_READ_BIT_3 -->
<g id="edge16" class="edge transition">
<title>PHY_STATE_READ_BIT_2&#45;&gt;PHY_STATE_READ_BIT_3</title>
<path fill="none" stroke="#000000" d="M571.329,-179.8015C573.2516,-169.2915 575.7103,-155.8503 577.8748,-144.0177"/>
<polygon fill="#000000" stroke="#000000" points="581.3237,-144.6142 579.6803,-134.1476 574.438,-143.3545 581.3237,-144.6142"/>
<text text-anchor="middle" x="577.3895" y="-154" font-family="Helvetica,sans-Serif" font-size="10.00" fill="#000000"> </text>
</g>
<!-- PHY_STATE_READ_BIT_4 -->
<g id="node14" class="node state regular">
<title>PHY_STATE_READ_BIT_4</title>
<polygon fill="#ffffff" fill-opacity="0.003922" stroke="transparent" stroke-width="2" points="728,-52 558,-52 558,-16 728,-16 728,-52"/>
<text text-anchor="start" x="568.654" y="-30.2" font-family="Helvetica,sans-Serif" font-size="12.00" fill="#000000">PHY_STATE_READ_BIT_4</text>
<path fill="none" stroke="#000000" stroke-width="2" d="M570.3333,-17C570.3333,-17 715.6667,-17 715.6667,-17 721.3333,-17 727,-22.6667 727,-28.3333 727,-28.3333 727,-39.6667 727,-39.6667 727,-45.3333 721.3333,-51 715.6667,-51 715.6667,-51 570.3333,-51 570.3333,-51 564.6667,-51 559,-45.3333 559,-39.6667 559,-39.6667 559,-28.3333 559,-28.3333 559,-22.6667 564.6667,-17 570.3333,-17"/>
</g>
<!-- PHY_STATE_READ_BIT_3&#45;&gt;PHY_STATE_READ_BIT_4 -->
<g id="edge17" class="edge transition">
<title>PHY_STATE_READ_BIT_3&#45;&gt;PHY_STATE_READ_BIT_4</title>
<path fill="none" stroke="#000000" d="M596.3159,-97.8015C604.3947,-86.7606 614.8402,-72.4851 623.8016,-60.2378"/>
<polygon fill="#000000" stroke="#000000" points="626.6408,-62.2847 629.7213,-52.1476 620.9915,-58.1511 626.6408,-62.2847"/>
<text text-anchor="middle" x="617.3895" y="-72" font-family="Helvetica,sans-Serif" font-size="10.00" fill="#000000"> </text>
</g>
<!-- PHY_STATE_READ_BIT_4&#45;&gt;PHY_STATE_ACTIVE -->
<g id="edge18" class="edge transition">
<title>PHY_STATE_READ_BIT_4&#45;&gt;PHY_STATE_ACTIVE</title>
<path fill="none" stroke="#000000" d="M684.4756,-52.138C691.7266,-58.048 697,-65.5832 697,-75 697,-198 697,-198 697,-198 697,-242.6661 712.3459,-261.2216 687,-298 665.2322,-329.5863 626.8102,-346.9202 591.314,-356.4325"/>
<polygon fill="#000000" stroke="#000000" points="590.2479,-353.0913 581.3962,-358.9134 591.9466,-359.882 590.2479,-353.0913"/>
<text text-anchor="middle" x="698.3895" y="-195" font-family="Helvetica,sans-Serif" font-size="10.00" fill="#000000"> </text>
</g>
<!-- PHY_STATE_STOP_2 -->
<g id="node16" class="node state regular">
<title>PHY_STATE_STOP_2</title>
<polygon fill="#ffffff" fill-opacity="0.003922" stroke="transparent" stroke-width="2" points="866,-216 722,-216 722,-180 866,-180 866,-216"/>
<text text-anchor="start" x="732.6536" y="-194.2" font-family="Helvetica,sans-Serif" font-size="12.00" fill="#000000">PHY_STATE_STOP_2</text>
<path fill="none" stroke="#000000" stroke-width="2" d="M734.3333,-181C734.3333,-181 853.6667,-181 853.6667,-181 859.3333,-181 865,-186.6667 865,-192.3333 865,-192.3333 865,-203.6667 865,-203.6667 865,-209.3333 859.3333,-215 853.6667,-215 853.6667,-215 734.3333,-215 734.3333,-215 728.6667,-215 723,-209.3333 723,-203.6667 723,-203.6667 723,-192.3333 723,-192.3333 723,-186.6667 728.6667,-181 734.3333,-181"/>
</g>
<!-- PHY_STATE_STOP_1&#45;&gt;PHY_STATE_STOP_2 -->
<g id="edge19" class="edge transition">
<title>PHY_STATE_STOP_1&#45;&gt;PHY_STATE_STOP_2</title>
<path fill="none" stroke="#000000" d="M794,-261.8015C794,-251.3976 794,-238.1215 794,-226.3768"/>
<polygon fill="#000000" stroke="#000000" points="797.5001,-226.1476 794,-216.1476 790.5001,-226.1476 797.5001,-226.1476"/>
<text text-anchor="middle" x="795.3895" y="-236" font-family="Helvetica,sans-Serif" font-size="10.00" fill="#000000"> </text>
</g>
<!-- PHY_STATE_STOP_3 -->
<g id="node17" class="node state regular">
<title>PHY_STATE_STOP_3</title>
<polygon fill="#ffffff" fill-opacity="0.003922" stroke="transparent" stroke-width="2" points="878,-134 734,-134 734,-98 878,-98 878,-134"/>
<text text-anchor="start" x="744.6536" y="-112.2" font-family="Helvetica,sans-Serif" font-size="12.00" fill="#000000">PHY_STATE_STOP_3</text>
<path fill="none" stroke="#000000" stroke-width="2" d="M746.3333,-99C746.3333,-99 865.6667,-99 865.6667,-99 871.3333,-99 877,-104.6667 877,-110.3333 877,-110.3333 877,-121.6667 877,-121.6667 877,-127.3333 871.3333,-133 865.6667,-133 865.6667,-133 746.3333,-133 746.3333,-133 740.6667,-133 735,-127.3333 735,-121.6667 735,-121.6667 735,-110.3333 735,-110.3333 735,-104.6667 740.6667,-99 746.3333,-99"/>
</g>
<!-- PHY_STATE_STOP_2&#45;&gt;PHY_STATE_STOP_3 -->
<g id="edge20" class="edge transition">
<title>PHY_STATE_STOP_2&#45;&gt;PHY_STATE_STOP_3</title>
<path fill="none" stroke="#000000" d="M796.6632,-179.8015C798.1857,-169.3976 800.1286,-156.1215 801.8473,-144.3768"/>
<polygon fill="#000000" stroke="#000000" points="805.3593,-144.549 803.3443,-134.1476 798.4331,-143.5354 805.3593,-144.549"/>
<text text-anchor="middle" x="801.3895" y="-154" font-family="Helvetica,sans-Serif" font-size="10.00" fill="#000000"> </text>
</g>
<!-- PHY_STATE_STOP_3&#45;&gt;PHY_STATE_IDLE -->
<g id="edge21" class="edge transition">
<title>PHY_STATE_STOP_3&#45;&gt;PHY_STATE_IDLE</title>
<path fill="none" stroke="#000000" d="M860.9,-134.1671C876.3352,-140.9501 889,-148.964 889,-157 889,-253.5 889,-253.5 889,-253.5 889,-304.3967 887,-317.1033 887,-368 887,-579 887,-579 887,-579 887,-598.9051 770.4033,-610.3718 690.7364,-615.8834"/>
<polygon fill="#000000" stroke="#000000" points="690.4709,-612.3933 680.7291,-616.5581 690.9419,-619.3774 690.4709,-612.3933"/>
<text text-anchor="middle" x="888.3895" y="-365" font-family="Helvetica,sans-Serif" font-size="10.00" fill="#000000"> </text>
</g>
</g>
</svg>
